<svg xmlns="http://www.w3.org/2000/svg" viewBox="0 0 800 1040"><defs><linearGradient id="bg" x2="1" y2="1"><stop stop-color="#493527"/><stop offset="1" stop-color="#141815"/></linearGradient><linearGradient id="steel" x2="0" y2="1"><stop stop-color="#454a43"/><stop offset="1" stop-color="#111512"/></linearGradient><radialGradient id="glow"><stop stop-color="#d16937" stop-opacity=".63"/><stop offset="1" stop-color="#d16937" stop-opacity="0"/></radialGradient><clipPath id="arch"><path d="M68 1040V410C68 205 207 68 400 68S732 205 732 410v630z"/></clipPath><filter id="grain"><feTurbulence type="fractalNoise" baseFrequency=".65" numOctaves="3" stitchTiles="stitch"/><feColorMatrix type="saturate" values="0"/><feComponentTransfer><feFuncA type="linear" slope=".12"/></feComponentTransfer></filter></defs><rect width="800" height="1040" fill="#b3a086"/><g clip-path="url(#arch)"><rect width="800" height="1040" fill="url(#bg)"/><g><rect x="-110" y="190" width="102" height="44" rx="1" fill="#3b2b25" stroke="#66503a" stroke-width="2" opacity=".5"/><rect x="2" y="190" width="102" height="44" rx="1" fill="#3b3028" stroke="#66503a" stroke-width="2" opacity=".5"/><rect x="114" y="190" width="102" height="44" rx="1" fill="#453329" stroke="#66503a" stroke-width="2" opacity=".5"/><rect x="226" y="190" width="102" height="44" rx="1" fill="#503a2d" stroke="#66503a" stroke-width="2" opacity=".5"/><rect x="338" y="190" width="102" height="44" rx="1" fill="#3b2b25" stroke="#66503a" stroke-width="2" opacity=".5"/><rect x="450" y="190" width="102" height="44" rx="1" fill="#3b3028" stroke="#66503a" stroke-width="2" opacity=".5"/><rect x="562" y="190" width="102" height="44" rx="1" fill="#453329" stroke="#66503a" stroke-width="2" opacity=".5"/><rect x="674" y="190" width="102" height="44" rx="1" fill="#503a2d" stroke="#66503a" stroke-width="2" opacity=".5"/><rect x="786" y="190" width="102" height="44" rx="1" fill="#3b2b25" stroke="#66503a" stroke-width="2" opacity=".5"/><rect x="898" y="190" width="102" height="44" rx="1" fill="#3b3028" stroke="#66503a" stroke-width="2" opacity=".5"/><rect x="-55" y="244" width="102" height="44" rx="1" fill="#503a2d" stroke="#66503a" stroke-width="2" opacity=".5"/><rect x="57" y="244" width="102" height="44" rx="1" fill="#3b2b25" stroke="#66503a" stroke-width="2" opacity=".5"/><rect x="169" y="244" width="102" height="44" rx="1" fill="#3b3028" stroke="#66503a" stroke-width="2" opacity=".5"/><rect x="281" y="244" width="102" height="44" rx="1" fill="#453329" stroke="#66503a" stroke-width="2" opacity=".5"/><rect x="393" y="244" width="102" height="44" rx="1" fill="#503a2d" stroke="#66503a" stroke-width="2" opacity=".5"/><rect x="505" y="244" width="102" height="44" rx="1" fill="#3b2b25" stroke="#66503a" stroke-width="2" opacity=".5"/><rect x="617" y="244" width="102" height="44" rx="1" fill="#3b3028" stroke="#66503a" stroke-width="2" opacity=".5"/><rect x="729" y="244" width="102" height="44" rx="1" fill="#453329" stroke="#66503a" stroke-width="2" opacity=".5"/><rect x="841" y="244" width="102" height="44" rx="1" fill="#503a2d" stroke="#66503a" stroke-width="2" opacity=".5"/><rect x="953" y="244" width="102" height="44" rx="1" fill="#3b2b25" stroke="#66503a" stroke-width="2" opacity=".5"/><rect x="-110" y="298" width="102" height="44" rx="1" fill="#453329" stroke="#66503a" stroke-width="2" opacity=".5"/><rect x="2" y="298" width="102" height="44" rx="1" fill="#503a2d" stroke="#66503a" stroke-width="2" opacity=".5"/><rect x="114" y="298" width="102" height="44" rx="1" fill="#3b2b25" stroke="#66503a" stroke-width="2" opacity=".5"/><rect x="226" y="298" width="102" height="44" rx="1" fill="#3b3028" stroke="#66503a" stroke-width="2" opacity=".5"/><rect x="338" y="298" width="102" height="44" rx="1" fill="#453329" stroke="#66503a" stroke-width="2" opacity=".5"/><rect x="450" y="298" width="102" height="44" rx="1" fill="#503a2d" stroke="#66503a" stroke-width="2" opacity=".5"/><rect x="562" y="298" width="102" height="44" rx="1" fill="#3b2b25" stroke="#66503a" stroke-width="2" opacity=".5"/><rect x="674" y="298" width="102" height="44" rx="1" fill="#3b3028" stroke="#66503a" stroke-width="2" opacity=".5"/><rect x="786" y="298" width="102" height="44" rx="1" fill="#453329" stroke="#66503a" stroke-width="2" opacity=".5"/><rect x="898" y="298" width="102" height="44" rx="1" fill="#503a2d" stroke="#66503a" stroke-width="2" opacity=".5"/><rect x="-55" y="352" width="102" height="44" rx="1" fill="#3b3028" stroke="#66503a" stroke-width="2" opacity=".5"/><rect x="57" y="352" width="102" height="44" rx="1" fill="#453329" stroke="#66503a" stroke-width="2" opacity=".5"/><rect x="169" y="352" width="102" height="44" rx="1" fill="#503a2d" stroke="#66503a" stroke-width="2" opacity=".5"/><rect x="281" y="352" width="102" height="44" rx="1" fill="#3b2b25" stroke="#66503a" stroke-width="2" opacity=".5"/><rect x="393" y="352" width="102" height="44" rx="1" fill="#3b3028" stroke="#66503a" stroke-width="2" opacity=".5"/><rect x="505" y="352" width="102" height="44" rx="1" fill="#453329" stroke="#66503a" stroke-width="2" opacity=".5"/><rect x="617" y="352" width="102" height="44" rx="1" fill="#503a2d" stroke="#66503a" stroke-width="2" opacity=".5"/><rect x="729" y="352" width="102" height="44" rx="1" fill="#3b2b25" stroke="#66503a" stroke-width="2" opacity=".5"/><rect x="841" y="352" width="102" height="44" rx="1" fill="#3b3028" stroke="#66503a" stroke-width="2" opacity=".5"/><rect x="953" y="352" width="102" height="44" rx="1" fill="#453329" stroke="#66503a" stroke-width="2" opacity=".5"/><rect x="-110" y="406" width="102" height="44" rx="1" fill="#3b2b25" stroke="#66503a" stroke-width="2" opacity=".5"/><rect x="2" y="406" width="102" height="44" rx="1" fill="#3b3028" stroke="#66503a" stroke-width="2" opacity=".5"/><rect x="114" y="406" width="102" height="44" rx="1" fill="#453329" stroke="#66503a" stroke-width="2" opacity=".5"/><rect x="226" y="406" width="102" height="44" rx="1" fill="#503a2d" stroke="#66503a" stroke-width="2" opacity=".5"/><rect x="338" y="406" width="102" height="44" rx="1" fill="#3b2b25" stroke="#66503a" stroke-width="2" opacity=".5"/><rect x="450" y="406" width="102" height="44" rx="1" fill="#3b3028" stroke="#66503a" stroke-width="2" opacity=".5"/><rect x="562" y="406" width="102" height="44" rx="1" fill="#453329" stroke="#66503a" stroke-width="2" opacity=".5"/><rect x="674" y="406" width="102" height="44" rx="1" fill="#503a2d" stroke="#66503a" stroke-width="2" opacity=".5"/><rect x="786" y="406" width="102" height="44" rx="1" fill="#3b2b25" stroke="#66503a" stroke-width="2" opacity=".5"/><rect x="898" y="406" width="102" height="44" rx="1" fill="#3b3028" stroke="#66503a" stroke-width="2" opacity=".5"/><rect x="-55" y="460" width="102" height="44" rx="1" fill="#503a2d" stroke="#66503a" stroke-width="2" opacity=".5"/><rect x="57" y="460" width="102" height="44" rx="1" fill="#3b2b25" stroke="#66503a" stroke-width="2" opacity=".5"/><rect x="169" y="460" width="102" height="44" rx="1" fill="#3b3028" stroke="#66503a" stroke-width="2" opacity=".5"/><rect x="281" y="460" width="102" height="44" rx="1" fill="#453329" stroke="#66503a" stroke-width="2" opacity=".5"/><rect x="393" y="460" width="102" height="44" rx="1" fill="#503a2d" stroke="#66503a" stroke-width="2" opacity=".5"/><rect x="505" y="460" width="102" height="44" rx="1" fill="#3b2b25" stroke="#66503a" stroke-width="2" opacity=".5"/><rect x="617" y="460" width="102" height="44" rx="1" fill="#3b3028" stroke="#66503a" stroke-width="2" opacity=".5"/><rect x="729" y="460" width="102" height="44" rx="1" fill="#453329" stroke="#66503a" stroke-width="2" opacity=".5"/><rect x="841" y="460" width="102" height="44" rx="1" fill="#503a2d" stroke="#66503a" stroke-width="2" opacity=".5"/><rect x="953" y="460" width="102" height="44" rx="1" fill="#3b2b25" stroke="#66503a" stroke-width="2" opacity=".5"/><rect x="-110" y="514" width="102" height="44" rx="1" fill="#453329" stroke="#66503a" stroke-width="2" opacity=".5"/><rect x="2" y="514" width="102" height="44" rx="1" fill="#503a2d" stroke="#66503a" stroke-width="2" opacity=".5"/><rect x="114" y="514" width="102" height="44" rx="1" fill="#3b2b25" stroke="#66503a" stroke-width="2" opacity=".5"/><rect x="226" y="514" width="102" height="44" rx="1" fill="#3b3028" stroke="#66503a" stroke-width="2" opacity=".5"/><rect x="338" y="514" width="102" height="44" rx="1" fill="#453329" stroke="#66503a" stroke-width="2" opacity=".5"/><rect x="450" y="514" width="102" height="44" rx="1" fill="#503a2d" stroke="#66503a" stroke-width="2" opacity=".5"/><rect x="562" y="514" width="102" height="44" rx="1" fill="#3b2b25" stroke="#66503a" stroke-width="2" opacity=".5"/><rect x="674" y="514" width="102" height="44" rx="1" fill="#3b3028" stroke="#66503a" stroke-width="2" opacity=".5"/><rect x="786" y="514" width="102" height="44" rx="1" fill="#453329" stroke="#66503a" stroke-width="2" opacity=".5"/><rect x="898" y="514" width="102" height="44" rx="1" fill="#503a2d" stroke="#66503a" stroke-width="2" opacity=".5"/><rect x="-55" y="568" width="102" height="44" rx="1" fill="#3b3028" stroke="#66503a" stroke-width="2" opacity=".5"/><rect x="57" y="568" width="102" height="44" rx="1" fill="#453329" stroke="#66503a" stroke-width="2" opacity=".5"/><rect x="169" y="568" width="102" height="44" rx="1" fill="#503a2d" stroke="#66503a" stroke-width="2" opacity=".5"/><rect x="281" y="568" width="102" height="44" rx="1" fill="#3b2b25" stroke="#66503a" stroke-width="2" opacity=".5"/><rect x="393" y="568" width="102" height="44" rx="1" fill="#3b3028" stroke="#66503a" stroke-width="2" opacity=".5"/><rect x="505" y="568" width="102" height="44" rx="1" fill="#453329" stroke="#66503a" stroke-width="2" opacity=".5"/><rect x="617" y="568" width="102" height="44" rx="1" fill="#503a2d" stroke="#66503a" stroke-width="2" opacity=".5"/><rect x="729" y="568" width="102" height="44" rx="1" fill="#3b2b25" stroke="#66503a" stroke-width="2" opacity=".5"/><rect x="841" y="568" width="102" height="44" rx="1" fill="#3b3028" stroke="#66503a" stroke-width="2" opacity=".5"/><rect x="953" y="568" width="102" height="44" rx="1" fill="#453329" stroke="#66503a" stroke-width="2" opacity=".5"/><rect x="-110" y="622" width="102" height="44" rx="1" fill="#3b2b25" stroke="#66503a" stroke-width="2" opacity=".5"/><rect x="2" y="622" width="102" height="44" rx="1" fill="#3b3028" stroke="#66503a" stroke-width="2" opacity=".5"/><rect x="114" y="622" width="102" height="44" rx="1" fill="#453329" stroke="#66503a" stroke-width="2" opacity=".5"/><rect x="226" y="622" width="102" height="44" rx="1" fill="#503a2d" stroke="#66503a" stroke-width="2" opacity=".5"/><rect x="338" y="622" width="102" height="44" rx="1" fill="#3b2b25" stroke="#66503a" stroke-width="2" opacity=".5"/><rect x="450" y="622" width="102" height="44" rx="1" fill="#3b3028" stroke="#66503a" stroke-width="2" opacity=".5"/><rect x="562" y="622" width="102" height="44" rx="1" fill="#453329" stroke="#66503a" stroke-width="2" opacity=".5"/><rect x="674" y="622" width="102" height="44" rx="1" fill="#503a2d" stroke="#66503a" stroke-width="2" opacity=".5"/><rect x="786" y="622" width="102" height="44" rx="1" fill="#3b2b25" stroke="#66503a" stroke-width="2" opacity=".5"/><rect x="898" y="622" width="102" height="44" rx="1" fill="#3b3028" stroke="#66503a" stroke-width="2" opacity=".5"/><rect x="-55" y="676" width="102" height="44" rx="1" fill="#503a2d" stroke="#66503a" stroke-width="2" opacity=".5"/><rect x="57" y="676" width="102" height="44" rx="1" fill="#3b2b25" stroke="#66503a" stroke-width="2" opacity=".5"/><rect x="169" y="676" width="102" height="44" rx="1" fill="#3b3028" stroke="#66503a" stroke-width="2" opacity=".5"/><rect x="281" y="676" width="102" height="44" rx="1" fill="#453329" stroke="#66503a" stroke-width="2" opacity=".5"/><rect x="393" y="676" width="102" height="44" rx="1" fill="#503a2d" stroke="#66503a" stroke-width="2" opacity=".5"/><rect x="505" y="676" width="102" height="44" rx="1" fill="#3b2b25" stroke="#66503a" stroke-width="2" opacity=".5"/><rect x="617" y="676" width="102" height="44" rx="1" fill="#3b3028" stroke="#66503a" stroke-width="2" opacity=".5"/><rect x="729" y="676" width="102" height="44" rx="1" fill="#453329" stroke="#66503a" stroke-width="2" opacity=".5"/><rect x="841" y="676" width="102" height="44" rx="1" fill="#503a2d" stroke="#66503a" stroke-width="2" opacity=".5"/><rect x="953" y="676" width="102" height="44" rx="1" fill="#3b2b25" stroke="#66503a" stroke-width="2" opacity=".5"/><rect x="-110" y="730" width="102" height="44" rx="1" fill="#453329" stroke="#66503a" stroke-width="2" opacity=".5"/><rect x="2" y="730" width="102" height="44" rx="1" fill="#503a2d" stroke="#66503a" stroke-width="2" opacity=".5"/><rect x="114" y="730" width="102" height="44" rx="1" fill="#3b2b25" stroke="#66503a" stroke-width="2" opacity=".5"/><rect x="226" y="730" width="102" height="44" rx="1" fill="#3b3028" stroke="#66503a" stroke-width="2" opacity=".5"/><rect x="338" y="730" width="102" height="44" rx="1" fill="#453329" stroke="#66503a" stroke-width="2" opacity=".5"/><rect x="450" y="730" width="102" height="44" rx="1" fill="#503a2d" stroke="#66503a" stroke-width="2" opacity=".5"/><rect x="562" y="730" width="102" height="44" rx="1" fill="#3b2b25" stroke="#66503a" stroke-width="2" opacity=".5"/><rect x="674" y="730" width="102" height="44" rx="1" fill="#3b3028" stroke="#66503a" stroke-width="2" opacity=".5"/><rect x="786" y="730" width="102" height="44" rx="1" fill="#453329" stroke="#66503a" stroke-width="2" opacity=".5"/><rect x="898" y="730" width="102" height="44" rx="1" fill="#503a2d" stroke="#66503a" stroke-width="2" opacity=".5"/><rect x="-55" y="784" width="102" height="44" rx="1" fill="#3b3028" stroke="#66503a" stroke-width="2" opacity=".5"/><rect x="57" y="784" width="102" height="44" rx="1" fill="#453329" stroke="#66503a" stroke-width="2" opacity=".5"/><rect x="169" y="784" width="102" height="44" rx="1" fill="#503a2d" stroke="#66503a" stroke-width="2" opacity=".5"/><rect x="281" y="784" width="102" height="44" rx="1" fill="#3b2b25" stroke="#66503a" stroke-width="2" opacity=".5"/><rect x="393" y="784" width="102" height="44" rx="1" fill="#3b3028" stroke="#66503a" stroke-width="2" opacity=".5"/><rect x="505" y="784" width="102" height="44" rx="1" fill="#453329" stroke="#66503a" stroke-width="2" opacity=".5"/><rect x="617" y="784" width="102" height="44" rx="1" fill="#503a2d" stroke="#66503a" stroke-width="2" opacity=".5"/><rect x="729" y="784" width="102" height="44" rx="1" fill="#3b2b25" stroke="#66503a" stroke-width="2" opacity=".5"/><rect x="841" y="784" width="102" height="44" rx="1" fill="#3b3028" stroke="#66503a" stroke-width="2" opacity=".5"/><rect x="953" y="784" width="102" height="44" rx="1" fill="#453329" stroke="#66503a" stroke-width="2" opacity=".5"/><rect x="-110" y="838" width="102" height="44" rx="1" fill="#3b2b25" stroke="#66503a" stroke-width="2" opacity=".5"/><rect x="2" y="838" width="102" height="44" rx="1" fill="#3b3028" stroke="#66503a" stroke-width="2" opacity=".5"/><rect x="114" y="838" width="102" height="44" rx="1" fill="#453329" stroke="#66503a" stroke-width="2" opacity=".5"/><rect x="226" y="838" width="102" height="44" rx="1" fill="#503a2d" stroke="#66503a" stroke-width="2" opacity=".5"/><rect x="338" y="838" width="102" height="44" rx="1" fill="#3b2b25" stroke="#66503a" stroke-width="2" opacity=".5"/><rect x="450" y="838" width="102" height="44" rx="1" fill="#3b3028" stroke="#66503a" stroke-width="2" opacity=".5"/><rect x="562" y="838" width="102" height="44" rx="1" fill="#453329" stroke="#66503a" stroke-width="2" opacity=".5"/><rect x="674" y="838" width="102" height="44" rx="1" fill="#503a2d" stroke="#66503a" stroke-width="2" opacity=".5"/><rect x="786" y="838" width="102" height="44" rx="1" fill="#3b2b25" stroke="#66503a" stroke-width="2" opacity=".5"/><rect x="898" y="838" width="102" height="44" rx="1" fill="#3b3028" stroke="#66503a" stroke-width="2" opacity=".5"/><rect x="-55" y="892" width="102" height="44" rx="1" fill="#503a2d" stroke="#66503a" stroke-width="2" opacity=".5"/><rect x="57" y="892" width="102" height="44" rx="1" fill="#3b2b25" stroke="#66503a" stroke-width="2" opacity=".5"/><rect x="169" y="892" width="102" height="44" rx="1" fill="#3b3028" stroke="#66503a" stroke-width="2" opacity=".5"/><rect x="281" y="892" width="102" height="44" rx="1" fill="#453329" stroke="#66503a" stroke-width="2" opacity=".5"/><rect x="393" y="892" width="102" height="44" rx="1" fill="#503a2d" stroke="#66503a" stroke-width="2" opacity=".5"/><rect x="505" y="892" width="102" height="44" rx="1" fill="#3b2b25" stroke="#66503a" stroke-width="2" opacity=".5"/><rect x="617" y="892" width="102" height="44" rx="1" fill="#3b3028" stroke="#66503a" stroke-width="2" opacity=".5"/><rect x="729" y="892" width="102" height="44" rx="1" fill="#453329" stroke="#66503a" stroke-width="2" opacity=".5"/><rect x="841" y="892" width="102" height="44" rx="1" fill="#503a2d" stroke="#66503a" stroke-width="2" opacity=".5"/><rect x="953" y="892" width="102" height="44" rx="1" fill="#3b2b25" stroke="#66503a" stroke-width="2" opacity=".5"/><rect x="-110" y="946" width="102" height="44" rx="1" fill="#453329" stroke="#66503a" stroke-width="2" opacity=".5"/><rect x="2" y="946" width="102" height="44" rx="1" fill="#503a2d" stroke="#66503a" stroke-width="2" opacity=".5"/><rect x="114" y="946" width="102" height="44" rx="1" fill="#3b2b25" stroke="#66503a" stroke-width="2" opacity=".5"/><rect x="226" y="946" width="102" height="44" rx="1" fill="#3b3028" stroke="#66503a" stroke-width="2" opacity=".5"/><rect x="338" y="946" width="102" height="44" rx="1" fill="#453329" stroke="#66503a" stroke-width="2" opacity=".5"/><rect x="450" y="946" width="102" height="44" rx="1" fill="#503a2d" stroke="#66503a" stroke-width="2" opacity=".5"/><rect x="562" y="946" width="102" height="44" rx="1" fill="#3b2b25" stroke="#66503a" stroke-width="2" opacity=".5"/><rect x="674" y="946" width="102" height="44" rx="1" fill="#3b3028" stroke="#66503a" stroke-width="2" opacity=".5"/><rect x="786" y="946" width="102" height="44" rx="1" fill="#453329" stroke="#66503a" stroke-width="2" opacity=".5"/><rect x="898" y="946" width="102" height="44" rx="1" fill="#503a2d" stroke="#66503a" stroke-width="2" opacity=".5"/></g><rect y="565" width="800" height="475" fill="#1b1d18" opacity=".68"/><ellipse cx="435" cy="695" rx="340" ry="255" fill="url(#glow)"/><path d="M365 550c-58 -70 40 -108 -15 -180s55 -122 0 -180" fill="none" stroke="#e3cdb0" stroke-width="11" stroke-linecap="round" opacity="0.18"/><path d="M399 550c-50 -70 48 -108 -10 -180s51 -122 0 -180" fill="none" stroke="#e3cdb0" stroke-width="10" stroke-linecap="round" opacity="0.152"/><path d="M433 550c-42 -70 56 -108 -5 -180s47 -122 0 -180" fill="none" stroke="#e3cdb0" stroke-width="9" stroke-linecap="round" opacity="0.124"/><path d="M467 550c-34 -70 64 -108 0 -180s43 -122 0 -180" fill="none" stroke="#e3cdb0" stroke-width="8" stroke-linecap="round" opacity="0.09599999999999999"/><path d="M501 550c-26 -70 72 -108 5 -180s39 -122 0 -180" fill="none" stroke="#e3cdb0" stroke-width="7" stroke-linecap="round" opacity="0.06799999999999999"/><g transform="translate(34,428)"><path d="M55 459H726" stroke="#75634f" stroke-width="8"/><path d="M115 455V232M601 455V232" stroke="#111613" stroke-width="25"/><rect x="115" y="222" width="491" height="220" rx="110" fill="url(#steel)" stroke="#7c6b51" stroke-width="8"/><rect x="145" y="261" width="429" height="140" rx="70" fill="#242823"/><path d="M199 240Q339 193 510 247" fill="none" stroke="#9a8b70" stroke-width="6" opacity=".63"/><rect x="118" y="281" width="160" height="140" rx="30" fill="#171d1a" stroke="#7e644f" stroke-width="6"/><circle cx="194" cy="353" r="30" fill="#271b16" stroke="#d1844a" stroke-width="4"/><path d="M181 361l12-21 14 21" fill="none" stroke="#b55c35" stroke-width="6" stroke-linecap="round"/><rect x="594" y="314" width="114" height="102" rx="6" fill="#2a2e27" stroke="#75614e" stroke-width="6"/><rect x="634" y="101" width="23" height="230" rx="5" fill="#2b2c28" stroke="#7a6d5c" stroke-width="5"/><path d="M624 103h43" stroke="#9b8872" stroke-width="8"/><circle cx="355" cy="339" r="25" fill="#d6c0a0" stroke="#2f2922" stroke-width="5"/><path d="M355 337l12-10" stroke="#4c241e" stroke-width="3"/><path d="M369 357v26" stroke="#806c53" stroke-width="5"/><path d="M229 394h269" stroke="#71654f" stroke-width="3"/></g><path d="M0 934h800" stroke="#aa6c40" stroke-width="7" opacity=".3"/><rect width="800" height="1040" filter="url(#grain)" opacity=".24"/></g><path d="M68 1040V410C68 205 207 68 400 68S732 205 732 410v630" fill="none" stroke="#cab291" stroke-width="17"/><path d="M28 1040V404C28 184 184 28 400 28S772 184 772 404v636" fill="none" stroke="#221f1b" stroke-width="20"/><text x="400" y="917" text-anchor="middle" fill="#f0e2cb" font-family="Arial,sans-serif" font-weight="bold" letter-spacing="9" font-size="19">MADE UNDER THE ARCH</text><text x="400" y="967" text-anchor="middle" fill="#d58c59" font-family="Arial,sans-serif" font-weight="bold" letter-spacing="4" font-size="14">CASTLEFIELD · MANCHESTER</text></svg>